<?xml version="1.0" encoding="utf-8" standalone="no"?>
<!DOCTYPE svg PUBLIC "-//W3C//DTD SVG 1.1//EN"
  "http://www.w3.org/Graphics/SVG/1.1/DTD/svg11.dtd">
<svg xmlns:xlink="http://www.w3.org/1999/xlink" width="426.584063pt" height="243.94725pt" viewBox="0 0 426.584063 243.94725" xmlns="http://www.w3.org/2000/svg" version="1.1">
 <metadata>
  <rdf:RDF xmlns:dc="http://purl.org/dc/elements/1.1/" xmlns:cc="http://creativecommons.org/ns#" xmlns:rdf="http://www.w3.org/1999/02/22-rdf-syntax-ns#">
   <cc:Work>
    <dc:type rdf:resource="http://purl.org/dc/dcmitype/StillImage"/>
    <dc:date>2026-05-31T14:48:13.719983</dc:date>
    <dc:format>image/svg+xml</dc:format>
    <dc:creator>
     <cc:Agent>
      <dc:title>Matplotlib v3.10.8, https://matplotlib.org/</dc:title>
     </cc:Agent>
    </dc:creator>
   </cc:Work>
  </rdf:RDF>
 </metadata>
 <defs>
  <style type="text/css">*{stroke-linejoin: round; stroke-linecap: butt}</style>
 </defs>
 <g id="figure_1">
  <g id="patch_1">
   <path d="M -0 243.94725 
L 426.584062 243.94725 
L 426.584062 0 
L -0 0 
z
" style="fill: #ffffff"/>
  </g>
  <g id="axes_1">
   <g id="patch_2">
    <path d="M 39.944063 209.294437 
L 419.384062 209.294437 
L 419.384062 20.798437 
L 39.944063 20.798437 
z
" style="fill: #ffffff"/>
   </g>
   <g id="matplotlib.axis_1">
    <g id="xtick_1">
     <g id="line2d_1">
      <path d="M 57.191335 209.294437 
L 57.191335 20.798437 
" clip-path="url(#pb868bf013a)" style="fill: none; stroke: #e5e7eb; stroke-width: 0.8; stroke-linecap: square"/>
     </g>
     <g id="line2d_2">
      <defs>
       <path id="m3637e6c946" d="M 0 0 
L 0 3.5 
" style="stroke: #000000; stroke-width: 0.8"/>
      </defs>
      <g>
       <use xlink:href="#m3637e6c946" x="57.191335" y="209.294437" style="stroke: #000000; stroke-width: 0.8"/>
      </g>
     </g>
     <g id="text_1">
      <text style="font-size: 8.5px; font-family: 'DejaVu Sans'; text-anchor: middle" x="57.191335" y="222.753109" transform="rotate(-0 57.191335 222.753109)">10</text>
     </g>
    </g>
    <g id="xtick_2">
     <g id="line2d_3">
      <path d="M 95.518608 209.294437 
L 95.518608 20.798437 
" clip-path="url(#pb868bf013a)" style="fill: none; stroke: #e5e7eb; stroke-width: 0.8; stroke-linecap: square"/>
     </g>
     <g id="line2d_4">
      <g>
       <use xlink:href="#m3637e6c946" x="95.518608" y="209.294437" style="stroke: #000000; stroke-width: 0.8"/>
      </g>
     </g>
     <g id="text_2">
      <text style="font-size: 8.5px; font-family: 'DejaVu Sans'; text-anchor: middle" x="95.518608" y="222.753109" transform="rotate(-0 95.518608 222.753109)">20</text>
     </g>
    </g>
    <g id="xtick_3">
     <g id="line2d_5">
      <path d="M 210.500426 209.294437 
L 210.500426 20.798437 
" clip-path="url(#pb868bf013a)" style="fill: none; stroke: #e5e7eb; stroke-width: 0.8; stroke-linecap: square"/>
     </g>
     <g id="line2d_6">
      <g>
       <use xlink:href="#m3637e6c946" x="210.500426" y="209.294437" style="stroke: #000000; stroke-width: 0.8"/>
      </g>
     </g>
     <g id="text_3">
      <text style="font-size: 8.5px; font-family: 'DejaVu Sans'; text-anchor: middle" x="210.500426" y="222.753109" transform="rotate(-0 210.500426 222.753109)">50</text>
     </g>
    </g>
    <g id="xtick_4">
     <g id="line2d_7">
      <path d="M 402.13679 209.294437 
L 402.13679 20.798437 
" clip-path="url(#pb868bf013a)" style="fill: none; stroke: #e5e7eb; stroke-width: 0.8; stroke-linecap: square"/>
     </g>
     <g id="line2d_8">
      <g>
       <use xlink:href="#m3637e6c946" x="402.13679" y="209.294437" style="stroke: #000000; stroke-width: 0.8"/>
      </g>
     </g>
     <g id="text_4">
      <text style="font-size: 8.5px; font-family: 'DejaVu Sans'; text-anchor: middle" x="402.13679" y="222.753109" transform="rotate(-0 402.13679 222.753109)">100</text>
     </g>
    </g>
    <g id="text_5">
     <text style="font-size: 8.5px; font-family: 'DejaVu Sans'; text-anchor: middle" x="229.664062" y="234.979516" transform="rotate(-0 229.664062 234.979516)">Top K genes</text>
    </g>
   </g>
   <g id="matplotlib.axis_2">
    <g id="ytick_1">
     <g id="line2d_9">
      <path d="M 39.944063 209.294437 
L 419.384062 209.294437 
" clip-path="url(#pb868bf013a)" style="fill: none; stroke: #e5e7eb; stroke-width: 0.8; stroke-linecap: square"/>
     </g>
     <g id="line2d_10">
      <defs>
       <path id="m9eb2f24068" d="M 0 0 
L -3.5 0 
" style="stroke: #000000; stroke-width: 0.8"/>
      </defs>
      <g>
       <use xlink:href="#m9eb2f24068" x="39.944063" y="209.294437" style="stroke: #000000; stroke-width: 0.8"/>
      </g>
     </g>
     <g id="text_6">
      <text style="font-size: 8.5px; font-family: 'DejaVu Sans'; text-anchor: end" x="32.944063" y="212.523773" transform="rotate(-0 32.944063 212.523773)">0.0</text>
     </g>
    </g>
    <g id="ytick_2">
     <g id="line2d_11">
      <path d="M 39.944063 172.334437 
L 419.384062 172.334437 
" clip-path="url(#pb868bf013a)" style="fill: none; stroke: #e5e7eb; stroke-width: 0.8; stroke-linecap: square"/>
     </g>
     <g id="line2d_12">
      <g>
       <use xlink:href="#m9eb2f24068" x="39.944063" y="172.334437" style="stroke: #000000; stroke-width: 0.8"/>
      </g>
     </g>
     <g id="text_7">
      <text style="font-size: 8.5px; font-family: 'DejaVu Sans'; text-anchor: end" x="32.944063" y="175.563773" transform="rotate(-0 32.944063 175.563773)">0.2</text>
     </g>
    </g>
    <g id="ytick_3">
     <g id="line2d_13">
      <path d="M 39.944063 135.374437 
L 419.384062 135.374437 
" clip-path="url(#pb868bf013a)" style="fill: none; stroke: #e5e7eb; stroke-width: 0.8; stroke-linecap: square"/>
     </g>
     <g id="line2d_14">
      <g>
       <use xlink:href="#m9eb2f24068" x="39.944063" y="135.374437" style="stroke: #000000; stroke-width: 0.8"/>
      </g>
     </g>
     <g id="text_8">
      <text style="font-size: 8.5px; font-family: 'DejaVu Sans'; text-anchor: end" x="32.944063" y="138.603773" transform="rotate(-0 32.944063 138.603773)">0.4</text>
     </g>
    </g>
    <g id="ytick_4">
     <g id="line2d_15">
      <path d="M 39.944063 98.414437 
L 419.384062 98.414437 
" clip-path="url(#pb868bf013a)" style="fill: none; stroke: #e5e7eb; stroke-width: 0.8; stroke-linecap: square"/>
     </g>
     <g id="line2d_16">
      <g>
       <use xlink:href="#m9eb2f24068" x="39.944063" y="98.414437" style="stroke: #000000; stroke-width: 0.8"/>
      </g>
     </g>
     <g id="text_9">
      <text style="font-size: 8.5px; font-family: 'DejaVu Sans'; text-anchor: end" x="32.944063" y="101.643773" transform="rotate(-0 32.944063 101.643773)">0.6</text>
     </g>
    </g>
    <g id="ytick_5">
     <g id="line2d_17">
      <path d="M 39.944063 61.454437 
L 419.384062 61.454437 
" clip-path="url(#pb868bf013a)" style="fill: none; stroke: #e5e7eb; stroke-width: 0.8; stroke-linecap: square"/>
     </g>
     <g id="line2d_18">
      <g>
       <use xlink:href="#m9eb2f24068" x="39.944063" y="61.454437" style="stroke: #000000; stroke-width: 0.8"/>
      </g>
     </g>
     <g id="text_10">
      <text style="font-size: 8.5px; font-family: 'DejaVu Sans'; text-anchor: end" x="32.944063" y="64.683773" transform="rotate(-0 32.944063 64.683773)">0.8</text>
     </g>
    </g>
    <g id="ytick_6">
     <g id="line2d_19">
      <path d="M 39.944063 24.494437 
L 419.384062 24.494437 
" clip-path="url(#pb868bf013a)" style="fill: none; stroke: #e5e7eb; stroke-width: 0.8; stroke-linecap: square"/>
     </g>
     <g id="line2d_20">
      <g>
       <use xlink:href="#m9eb2f24068" x="39.944063" y="24.494437" style="stroke: #000000; stroke-width: 0.8"/>
      </g>
     </g>
     <g id="text_11">
      <text style="font-size: 8.5px; font-family: 'DejaVu Sans'; text-anchor: end" x="32.944063" y="27.723773" transform="rotate(-0 32.944063 27.723773)">1.0</text>
     </g>
    </g>
    <g id="text_12">
     <text style="font-size: 8.5px; font-family: 'DejaVu Sans'; text-anchor: middle" x="13.658672" y="115.046437" transform="rotate(-90 13.658672 115.046437)">Locked-panel recall</text>
    </g>
   </g>
   <g id="line2d_21">
    <path d="M 57.191335 156.494437 
L 95.518608 130.094437 
L 210.500426 57.494437 
L 402.13679 37.694437 
" clip-path="url(#pb868bf013a)" style="fill: none; stroke: #1f77b4; stroke-width: 2.2; stroke-linecap: square"/>
    <defs>
     <path id="m313dd7de81" d="M 0 3 
C 0.795609 3 1.55874 2.683901 2.12132 2.12132 
C 2.683901 1.55874 3 0.795609 3 0 
C 3 -0.795609 2.683901 -1.55874 2.12132 -2.12132 
C 1.55874 -2.683901 0.795609 -3 0 -3 
C -0.795609 -3 -1.55874 -2.683901 -2.12132 -2.12132 
C -2.683901 -1.55874 -3 -0.795609 -3 0 
C -3 0.795609 -2.683901 1.55874 -2.12132 2.12132 
C -1.55874 2.683901 -0.795609 3 0 3 
z
" style="stroke: #1f77b4"/>
    </defs>
    <g clip-path="url(#pb868bf013a)">
     <use xlink:href="#m313dd7de81" x="57.191335" y="156.494437" style="fill: #1f77b4; stroke: #1f77b4"/>
     <use xlink:href="#m313dd7de81" x="95.518608" y="130.094437" style="fill: #1f77b4; stroke: #1f77b4"/>
     <use xlink:href="#m313dd7de81" x="210.500426" y="57.494437" style="fill: #1f77b4; stroke: #1f77b4"/>
     <use xlink:href="#m313dd7de81" x="402.13679" y="37.694437" style="fill: #1f77b4; stroke: #1f77b4"/>
    </g>
   </g>
   <g id="line2d_22">
    <path d="M 57.191335 163.094437 
L 95.518608 134.219437 
L 210.500426 99.569437 
L 402.13679 64.919437 
" clip-path="url(#pb868bf013a)" style="fill: none; stroke: #ff7f0e; stroke-width: 2.2; stroke-linecap: square"/>
    <defs>
     <path id="m4a5905a7d0" d="M 0 3 
C 0.795609 3 1.55874 2.683901 2.12132 2.12132 
C 2.683901 1.55874 3 0.795609 3 0 
C 3 -0.795609 2.683901 -1.55874 2.12132 -2.12132 
C 1.55874 -2.683901 0.795609 -3 0 -3 
C -0.795609 -3 -1.55874 -2.683901 -2.12132 -2.12132 
C -2.683901 -1.55874 -3 -0.795609 -3 0 
C -3 0.795609 -2.683901 1.55874 -2.12132 2.12132 
C -1.55874 2.683901 -0.795609 3 0 3 
z
" style="stroke: #ff7f0e"/>
    </defs>
    <g clip-path="url(#pb868bf013a)">
     <use xlink:href="#m4a5905a7d0" x="57.191335" y="163.094437" style="fill: #ff7f0e; stroke: #ff7f0e"/>
     <use xlink:href="#m4a5905a7d0" x="95.518608" y="134.219437" style="fill: #ff7f0e; stroke: #ff7f0e"/>
     <use xlink:href="#m4a5905a7d0" x="210.500426" y="99.569437" style="fill: #ff7f0e; stroke: #ff7f0e"/>
     <use xlink:href="#m4a5905a7d0" x="402.13679" y="64.919437" style="fill: #ff7f0e; stroke: #ff7f0e"/>
    </g>
   </g>
   <g id="line2d_23">
    <path d="M 57.191335 152.432899 
L 95.518608 138.217514 
L 210.500426 102.679053 
L 402.13679 74.248284 
" clip-path="url(#pb868bf013a)" style="fill: none; stroke: #2ca02c; stroke-width: 2.2; stroke-linecap: square"/>
    <defs>
     <path id="m41dc2ca89e" d="M 0 3 
C 0.795609 3 1.55874 2.683901 2.12132 2.12132 
C 2.683901 1.55874 3 0.795609 3 0 
C 3 -0.795609 2.683901 -1.55874 2.12132 -2.12132 
C 1.55874 -2.683901 0.795609 -3 0 -3 
C -0.795609 -3 -1.55874 -2.683901 -2.12132 -2.12132 
C -2.683901 -1.55874 -3 -0.795609 -3 0 
C -3 0.795609 -2.683901 1.55874 -2.12132 2.12132 
C -1.55874 2.683901 -0.795609 3 0 3 
z
" style="stroke: #2ca02c"/>
    </defs>
    <g clip-path="url(#pb868bf013a)">
     <use xlink:href="#m41dc2ca89e" x="57.191335" y="152.432899" style="fill: #2ca02c; stroke: #2ca02c"/>
     <use xlink:href="#m41dc2ca89e" x="95.518608" y="138.217514" style="fill: #2ca02c; stroke: #2ca02c"/>
     <use xlink:href="#m41dc2ca89e" x="210.500426" y="102.679053" style="fill: #2ca02c; stroke: #2ca02c"/>
     <use xlink:href="#m41dc2ca89e" x="402.13679" y="74.248284" style="fill: #2ca02c; stroke: #2ca02c"/>
    </g>
   </g>
   <g id="line2d_24">
    <path d="M 57.191335 170.094437 
L 95.518608 142.094437 
L 210.500426 69.294437 
L 402.13679 52.494437 
" clip-path="url(#pb868bf013a)" style="fill: none; stroke: #d62728; stroke-width: 2.2; stroke-linecap: square"/>
    <defs>
     <path id="ma8395adc4e" d="M 0 3 
C 0.795609 3 1.55874 2.683901 2.12132 2.12132 
C 2.683901 1.55874 3 0.795609 3 0 
C 3 -0.795609 2.683901 -1.55874 2.12132 -2.12132 
C 1.55874 -2.683901 0.795609 -3 0 -3 
C -0.795609 -3 -1.55874 -2.683901 -2.12132 -2.12132 
C -2.683901 -1.55874 -3 -0.795609 -3 0 
C -3 0.795609 -2.683901 1.55874 -2.12132 2.12132 
C -1.55874 2.683901 -0.795609 3 0 3 
z
" style="stroke: #d62728"/>
    </defs>
    <g clip-path="url(#pb868bf013a)">
     <use xlink:href="#ma8395adc4e" x="57.191335" y="170.094437" style="fill: #d62728; stroke: #d62728"/>
     <use xlink:href="#ma8395adc4e" x="95.518608" y="142.094437" style="fill: #d62728; stroke: #d62728"/>
     <use xlink:href="#ma8395adc4e" x="210.500426" y="69.294437" style="fill: #d62728; stroke: #d62728"/>
     <use xlink:href="#ma8395adc4e" x="402.13679" y="52.494437" style="fill: #d62728; stroke: #d62728"/>
    </g>
   </g>
   <g id="patch_3">
    <path d="M 39.944063 209.294437 
L 39.944063 20.798437 
" style="fill: none; stroke: #000000; stroke-width: 0.8; stroke-linejoin: miter; stroke-linecap: square"/>
   </g>
   <g id="patch_4">
    <path d="M 419.384062 209.294437 
L 419.384062 20.798437 
" style="fill: none; stroke: #000000; stroke-width: 0.8; stroke-linejoin: miter; stroke-linecap: square"/>
   </g>
   <g id="patch_5">
    <path d="M 39.944063 209.294437 
L 419.384062 209.294437 
" style="fill: none; stroke: #000000; stroke-width: 0.8; stroke-linejoin: miter; stroke-linecap: square"/>
   </g>
   <g id="patch_6">
    <path d="M 39.944063 20.798437 
L 419.384062 20.798437 
" style="fill: none; stroke: #000000; stroke-width: 0.8; stroke-linejoin: miter; stroke-linecap: square"/>
   </g>
   <g id="text_13">
    <text style="font-weight: 700; font-size: 10px; font-family: 'DejaVu Sans'; text-anchor: start" x="39.944063" y="14.798437" transform="rotate(-0 39.944063 14.798437)">A. DEGORA recall by cutoff</text>
   </g>
   <g id="legend_1">
    <g id="line2d_25">
     <path d="M 340.457578 159.472484 
L 348.957578 159.472484 
L 357.457578 159.472484 
" style="fill: none; stroke: #1f77b4; stroke-width: 2.2; stroke-linecap: square"/>
     <g>
      <use xlink:href="#m313dd7de81" x="348.957578" y="159.472484" style="fill: #1f77b4; stroke: #1f77b4"/>
     </g>
    </g>
    <g id="text_14">
     <text style="font-size: 8.5px; font-family: 'DejaVu Sans'; text-anchor: start" x="364.257578" y="162.447484" transform="rotate(-0 364.257578 162.447484)">IFN</text>
    </g>
    <g id="line2d_26">
     <path d="M 340.457578 171.948891 
L 348.957578 171.948891 
L 357.457578 171.948891 
" style="fill: none; stroke: #ff7f0e; stroke-width: 2.2; stroke-linecap: square"/>
     <g>
      <use xlink:href="#m4a5905a7d0" x="348.957578" y="171.948891" style="fill: #ff7f0e; stroke: #ff7f0e"/>
     </g>
    </g>
    <g id="text_15">
     <text style="font-size: 8.5px; font-family: 'DejaVu Sans'; text-anchor: start" x="364.257578" y="174.923891" transform="rotate(-0 364.257578 174.923891)">ER stress</text>
    </g>
    <g id="line2d_27">
     <path d="M 340.457578 184.425297 
L 348.957578 184.425297 
L 357.457578 184.425297 
" style="fill: none; stroke: #2ca02c; stroke-width: 2.2; stroke-linecap: square"/>
     <g>
      <use xlink:href="#m41dc2ca89e" x="348.957578" y="184.425297" style="fill: #2ca02c; stroke: #2ca02c"/>
     </g>
    </g>
    <g id="text_16">
     <text style="font-size: 8.5px; font-family: 'DejaVu Sans'; text-anchor: start" x="364.257578" y="187.400297" transform="rotate(-0 364.257578 187.400297)">Heat shock</text>
    </g>
    <g id="line2d_28">
     <path d="M 340.457578 196.901703 
L 348.957578 196.901703 
L 357.457578 196.901703 
" style="fill: none; stroke: #d62728; stroke-width: 2.2; stroke-linecap: square"/>
     <g>
      <use xlink:href="#ma8395adc4e" x="348.957578" y="196.901703" style="fill: #d62728; stroke: #d62728"/>
     </g>
    </g>
    <g id="text_17">
     <text style="font-size: 8.5px; font-family: 'DejaVu Sans'; text-anchor: start" x="364.257578" y="199.876703" transform="rotate(-0 364.257578 199.876703)">Hypoxia</text>
    </g>
   </g>
  </g>
 </g>
 <defs>
  <clipPath id="pb868bf013a">
   <rect x="39.944063" y="20.798437" width="379.44" height="188.496"/>
  </clipPath>
 </defs>
</svg>
