<?xml version="1.0" encoding="utf-8" standalone="no"?>
<!DOCTYPE svg PUBLIC "-//W3C//DTD SVG 1.1//EN"
  "http://www.w3.org/Graphics/SVG/1.1/DTD/svg11.dtd">
<svg xmlns:xlink="http://www.w3.org/1999/xlink" width="756pt" height="302.4pt" viewBox="0 0 756 302.4" xmlns="http://www.w3.org/2000/svg" version="1.1">
 <metadata>
  <rdf:RDF xmlns:dc="http://purl.org/dc/elements/1.1/" xmlns:cc="http://creativecommons.org/ns#" xmlns:rdf="http://www.w3.org/1999/02/22-rdf-syntax-ns#">
   <cc:Work>
    <dc:type rdf:resource="http://purl.org/dc/dcmitype/StillImage"/>
    <dc:date>2026-05-28T09:01:04.875717</dc:date>
    <dc:format>image/svg+xml</dc:format>
    <dc:creator>
     <cc:Agent>
      <dc:title>Matplotlib v3.10.8, https://matplotlib.org/</dc:title>
     </cc:Agent>
    </dc:creator>
   </cc:Work>
  </rdf:RDF>
 </metadata>
 <defs>
  <style type="text/css">*{stroke-linejoin: round; stroke-linecap: butt}</style>
 </defs>
 <g id="figure_1">
  <g id="patch_1">
   <path d="M 0 302.4 
L 756 302.4 
L 756 0 
L 0 0 
z
" style="fill: #ffffff"/>
  </g>
  <g id="axes_1">
   <g id="patch_2">
    <path d="M 44.48 262.96 
L 377.295 262.96 
L 377.295 62.16 
L 44.48 62.16 
z
" style="fill: #ffffff"/>
   </g>
   <g id="matplotlib.axis_1">
    <g id="xtick_1">
     <g id="line2d_1">
      <path d="M 110.776481 262.96 
L 110.776481 62.16 
" clip-path="url(#p513832604c)" style="fill: none; stroke: #e5e7e9; stroke-width: 0.8; stroke-linecap: square"/>
     </g>
     <g id="line2d_2">
      <defs>
       <path id="mdf211de10e" d="M 0 0 
L 0 3.5 
" style="stroke: #000000; stroke-width: 0.8"/>
      </defs>
      <g>
       <use xlink:href="#mdf211de10e" x="110.776481" y="262.96" style="stroke: #000000; stroke-width: 0.8"/>
      </g>
     </g>
     <g id="text_1">
      <text style="font-size: 9px; font-family: 'DejaVu Sans'; text-anchor: middle" x="110.776481" y="276.798594" transform="rotate(-0 110.776481 276.798594)">200</text>
     </g>
    </g>
    <g id="xtick_2">
     <g id="line2d_3">
      <path d="M 177.406111 262.96 
L 177.406111 62.16 
" clip-path="url(#p513832604c)" style="fill: none; stroke: #e5e7e9; stroke-width: 0.8; stroke-linecap: square"/>
     </g>
     <g id="line2d_4">
      <g>
       <use xlink:href="#mdf211de10e" x="177.406111" y="262.96" style="stroke: #000000; stroke-width: 0.8"/>
      </g>
     </g>
     <g id="text_2">
      <text style="font-size: 9px; font-family: 'DejaVu Sans'; text-anchor: middle" x="177.406111" y="276.798594" transform="rotate(-0 177.406111 276.798594)">400</text>
     </g>
    </g>
    <g id="xtick_3">
     <g id="line2d_5">
      <path d="M 244.035741 262.96 
L 244.035741 62.16 
" clip-path="url(#p513832604c)" style="fill: none; stroke: #e5e7e9; stroke-width: 0.8; stroke-linecap: square"/>
     </g>
     <g id="line2d_6">
      <g>
       <use xlink:href="#mdf211de10e" x="244.035741" y="262.96" style="stroke: #000000; stroke-width: 0.8"/>
      </g>
     </g>
     <g id="text_3">
      <text style="font-size: 9px; font-family: 'DejaVu Sans'; text-anchor: middle" x="244.035741" y="276.798594" transform="rotate(-0 244.035741 276.798594)">600</text>
     </g>
    </g>
    <g id="xtick_4">
     <g id="line2d_7">
      <path d="M 310.66537 262.96 
L 310.66537 62.16 
" clip-path="url(#p513832604c)" style="fill: none; stroke: #e5e7e9; stroke-width: 0.8; stroke-linecap: square"/>
     </g>
     <g id="line2d_8">
      <g>
       <use xlink:href="#mdf211de10e" x="310.66537" y="262.96" style="stroke: #000000; stroke-width: 0.8"/>
      </g>
     </g>
     <g id="text_4">
      <text style="font-size: 9px; font-family: 'DejaVu Sans'; text-anchor: middle" x="310.66537" y="276.798594" transform="rotate(-0 310.66537 276.798594)">800</text>
     </g>
    </g>
    <g id="xtick_5">
     <g id="line2d_9">
      <path d="M 377.295 262.96 
L 377.295 62.16 
" clip-path="url(#p513832604c)" style="fill: none; stroke: #e5e7e9; stroke-width: 0.8; stroke-linecap: square"/>
     </g>
     <g id="line2d_10">
      <g>
       <use xlink:href="#mdf211de10e" x="377.295" y="262.96" style="stroke: #000000; stroke-width: 0.8"/>
      </g>
     </g>
     <g id="text_5">
      <text style="font-size: 9px; font-family: 'DejaVu Sans'; text-anchor: middle" x="377.295" y="276.798594" transform="rotate(-0 377.295 276.798594)">1000</text>
     </g>
    </g>
    <g id="text_6">
     <text style="font-size: 9px; font-family: 'DejaVu Sans'; text-anchor: middle" x="210.8875" y="289.508906" transform="rotate(-0 210.8875 289.508906)">Top K genes</text>
    </g>
   </g>
   <g id="matplotlib.axis_2">
    <g id="ytick_1">
     <g id="line2d_11">
      <path d="M 44.48 259.098462 
L 377.295 259.098462 
" clip-path="url(#p513832604c)" style="fill: none; stroke: #e5e7e9; stroke-width: 0.8; stroke-linecap: square"/>
     </g>
     <g id="line2d_12">
      <defs>
       <path id="me76f3fe253" d="M 0 0 
L -3.5 0 
" style="stroke: #000000; stroke-width: 0.8"/>
      </defs>
      <g>
       <use xlink:href="#me76f3fe253" x="44.48" y="259.098462" style="stroke: #000000; stroke-width: 0.8"/>
      </g>
     </g>
     <g id="text_7">
      <text style="font-size: 9px; font-family: 'DejaVu Sans'; text-anchor: end" x="37.48" y="262.517758" transform="rotate(-0 37.48 262.517758)">0.0</text>
     </g>
    </g>
    <g id="ytick_2">
     <g id="line2d_13">
      <path d="M 44.48 220.483077 
L 377.295 220.483077 
" clip-path="url(#p513832604c)" style="fill: none; stroke: #e5e7e9; stroke-width: 0.8; stroke-linecap: square"/>
     </g>
     <g id="line2d_14">
      <g>
       <use xlink:href="#me76f3fe253" x="44.48" y="220.483077" style="stroke: #000000; stroke-width: 0.8"/>
      </g>
     </g>
     <g id="text_8">
      <text style="font-size: 9px; font-family: 'DejaVu Sans'; text-anchor: end" x="37.48" y="223.902374" transform="rotate(-0 37.48 223.902374)">0.2</text>
     </g>
    </g>
    <g id="ytick_3">
     <g id="line2d_15">
      <path d="M 44.48 181.867692 
L 377.295 181.867692 
" clip-path="url(#p513832604c)" style="fill: none; stroke: #e5e7e9; stroke-width: 0.8; stroke-linecap: square"/>
     </g>
     <g id="line2d_16">
      <g>
       <use xlink:href="#me76f3fe253" x="44.48" y="181.867692" style="stroke: #000000; stroke-width: 0.8"/>
      </g>
     </g>
     <g id="text_9">
      <text style="font-size: 9px; font-family: 'DejaVu Sans'; text-anchor: end" x="37.48" y="185.286989" transform="rotate(-0 37.48 185.286989)">0.4</text>
     </g>
    </g>
    <g id="ytick_4">
     <g id="line2d_17">
      <path d="M 44.48 143.252308 
L 377.295 143.252308 
" clip-path="url(#p513832604c)" style="fill: none; stroke: #e5e7e9; stroke-width: 0.8; stroke-linecap: square"/>
     </g>
     <g id="line2d_18">
      <g>
       <use xlink:href="#me76f3fe253" x="44.48" y="143.252308" style="stroke: #000000; stroke-width: 0.8"/>
      </g>
     </g>
     <g id="text_10">
      <text style="font-size: 9px; font-family: 'DejaVu Sans'; text-anchor: end" x="37.48" y="146.671605" transform="rotate(-0 37.48 146.671605)">0.6</text>
     </g>
    </g>
    <g id="ytick_5">
     <g id="line2d_19">
      <path d="M 44.48 104.636923 
L 377.295 104.636923 
" clip-path="url(#p513832604c)" style="fill: none; stroke: #e5e7e9; stroke-width: 0.8; stroke-linecap: square"/>
     </g>
     <g id="line2d_20">
      <g>
       <use xlink:href="#me76f3fe253" x="44.48" y="104.636923" style="stroke: #000000; stroke-width: 0.8"/>
      </g>
     </g>
     <g id="text_11">
      <text style="font-size: 9px; font-family: 'DejaVu Sans'; text-anchor: end" x="37.48" y="108.05622" transform="rotate(-0 37.48 108.05622)">0.8</text>
     </g>
    </g>
    <g id="ytick_6">
     <g id="line2d_21">
      <path d="M 44.48 66.021538 
L 377.295 66.021538 
" clip-path="url(#p513832604c)" style="fill: none; stroke: #e5e7e9; stroke-width: 0.8; stroke-linecap: square"/>
     </g>
     <g id="line2d_22">
      <g>
       <use xlink:href="#me76f3fe253" x="44.48" y="66.021538" style="stroke: #000000; stroke-width: 0.8"/>
      </g>
     </g>
     <g id="text_12">
      <text style="font-size: 9px; font-family: 'DejaVu Sans'; text-anchor: end" x="37.48" y="69.440835" transform="rotate(-0 37.48 69.440835)">1.0</text>
     </g>
    </g>
    <g id="text_13">
     <text style="font-size: 9px; font-family: 'DejaVu Sans'; text-anchor: middle" x="17.295469" y="162.56" transform="rotate(-90 17.295469 162.56)">Recall of locked gold panel</text>
    </g>
   </g>
   <g id="line2d_23">
    <path d="M 44.48 247.031154 
L 45.812593 198.761923 
L 46.145741 198.761923 
L 46.478889 186.694615 
L 52.142407 186.694615 
L 52.475556 174.627308 
L 54.474444 174.627308 
L 54.807593 162.56 
L 57.13963 162.56 
L 57.472778 150.492692 
L 58.139074 150.492692 
L 58.472222 138.425385 
L 58.80537 138.425385 
L 59.138519 126.358077 
L 62.136852 126.358077 
L 62.47 114.290769 
L 87.456111 114.290769 
L 87.789259 102.223462 
L 377.295 102.223462 
L 377.295 102.223462 
" clip-path="url(#p513832604c)" style="fill: none; stroke: #1b4f72; stroke-width: 2.6; stroke-linecap: square"/>
   </g>
   <g id="line2d_24">
    <path d="M 44.48 247.031154 
L 45.812593 198.761923 
L 46.145741 198.761923 
L 46.478889 186.694615 
L 52.475556 186.694615 
L 52.808704 174.627308 
L 55.807037 174.627308 
L 56.140185 162.56 
L 58.139074 162.56 
L 59.138519 126.358077 
L 60.804259 126.358077 
L 61.137407 114.290769 
L 81.459444 114.290769 
L 81.792593 102.223462 
L 377.295 102.223462 
L 377.295 102.223462 
" clip-path="url(#p513832604c)" style="fill: none; stroke: #117864; stroke-width: 2.4; stroke-linecap: square"/>
   </g>
   <g id="line2d_25">
    <path d="M 44.48 247.031154 
L 45.479444 210.829231 
L 45.812593 210.829231 
L 46.145741 198.761923 
L 47.145185 198.761923 
L 47.811481 174.627308 
L 52.142407 174.627308 
L 52.475556 162.56 
L 63.136296 162.56 
L 63.469444 150.492692 
L 72.131296 150.492692 
L 72.464444 138.425385 
L 94.119074 138.425385 
L 94.452222 126.358077 
L 139.76037 126.358077 
L 140.093519 114.290769 
L 159.416111 114.290769 
L 159.749259 102.223462 
L 377.295 102.223462 
L 377.295 102.223462 
" clip-path="url(#p513832604c)" style="fill: none; stroke-dasharray: 7.4,3.2; stroke-dashoffset: 0; stroke: #7d3c98; stroke-width: 2"/>
   </g>
   <g id="line2d_26">
    <path d="M 44.48 247.031154 
L 44.813148 247.031154 
L 45.812593 210.829231 
L 46.145741 210.829231 
L 46.478889 198.761923 
L 46.812037 198.761923 
L 47.478333 174.627308 
L 53.475 174.627308 
L 53.808148 162.56 
L 79.460556 162.56 
L 79.793704 150.492692 
L 93.452778 150.492692 
L 93.785926 138.425385 
L 121.77037 138.425385 
L 122.103519 126.358077 
L 125.435 126.358077 
L 125.768148 114.290769 
L 228.04463 114.290769 
L 228.377778 102.223462 
L 230.376667 102.223462 
L 230.709815 90.156154 
L 377.295 90.156154 
L 377.295 90.156154 
" clip-path="url(#p513832604c)" style="fill: none; stroke-dasharray: 7.4,3.2; stroke-dashoffset: 0; stroke: #b03a2e; stroke-width: 2"/>
   </g>
   <g id="line2d_27">
    <path d="M 44.48 247.031154 
L 44.813148 247.031154 
L 45.812593 210.829231 
L 46.145741 210.829231 
L 46.478889 198.761923 
L 46.812037 198.761923 
L 47.478333 174.627308 
L 53.475 174.627308 
L 53.808148 162.56 
L 79.460556 162.56 
L 79.793704 150.492692 
L 93.452778 150.492692 
L 93.785926 138.425385 
L 121.77037 138.425385 
L 122.103519 126.358077 
L 125.435 126.358077 
L 125.768148 114.290769 
L 228.04463 114.290769 
L 228.377778 102.223462 
L 230.376667 102.223462 
L 230.709815 90.156154 
L 377.295 90.156154 
L 377.295 90.156154 
" clip-path="url(#p513832604c)" style="fill: none; stroke-dasharray: 2.2,3.63; stroke-dashoffset: 0; stroke: #d35400; stroke-width: 2.2"/>
   </g>
   <g id="line2d_28">
    <path d="M 44.48 247.031154 
L 45.146296 222.896538 
L 46.812037 222.896538 
L 47.478333 198.761923 
L 53.475 198.761923 
L 53.808148 186.694615 
L 64.468889 186.694615 
L 64.802037 174.627308 
L 81.792593 174.627308 
L 82.125741 162.56 
L 98.45 162.56 
L 98.783148 150.492692 
L 107.111852 150.492692 
L 107.445 138.425385 
L 185.068519 138.425385 
L 185.401667 126.358077 
L 216.384444 126.358077 
L 216.717593 114.290769 
L 351.975741 114.290769 
L 352.308889 102.223462 
L 377.295 102.223462 
L 377.295 102.223462 
" clip-path="url(#p513832604c)" style="fill: none; stroke-dasharray: 12.8,3.2,2,3.2; stroke-dashoffset: 0; stroke: #566573; stroke-width: 2"/>
   </g>
   <g id="line2d_29">
    <path d="M 44.48 247.031154 
L 44.813148 234.963846 
L 45.146296 234.963846 
L 45.479444 222.896538 
L 46.145741 222.896538 
L 46.812037 198.761923 
L 47.478333 198.761923 
L 47.811481 186.694615 
L 48.810926 186.694615 
L 49.144074 174.627308 
L 78.794259 174.627308 
L 79.127407 162.56 
L 85.457222 162.56 
L 85.79037 150.492692 
L 91.453889 150.492692 
L 91.787037 138.425385 
L 137.761481 138.425385 
L 138.09463 126.358077 
L 169.410556 126.358077 
L 169.743704 114.290769 
L 289.010741 114.290769 
L 289.343889 102.223462 
L 353.97463 102.223462 
L 354.307778 90.156154 
L 377.295 90.156154 
L 377.295 90.156154 
" clip-path="url(#p513832604c)" style="fill: none; stroke-dasharray: 6,2,2,2; stroke-dashoffset: 0; stroke: #2e86c1; stroke-width: 2"/>
   </g>
   <g id="patch_3">
    <path d="M 44.48 262.96 
L 44.48 62.16 
" style="fill: none; stroke: #000000; stroke-width: 0.8; stroke-linejoin: miter; stroke-linecap: square"/>
   </g>
   <g id="patch_4">
    <path d="M 44.48 262.96 
L 377.295 262.96 
" style="fill: none; stroke: #000000; stroke-width: 0.8; stroke-linejoin: miter; stroke-linecap: square"/>
   </g>
   <g id="text_14">
    <text style="font-weight: 700; font-size: 11px; font-family: 'DejaVu Sans'; text-anchor: start" x="44.48" y="56.16" transform="rotate(-0 44.48 56.16)">A. Membership recall</text>
   </g>
  </g>
  <g id="axes_2">
   <g id="patch_5">
    <path d="M 401.99 262.96 
L 734.805 262.96 
L 734.805 62.16 
L 401.99 62.16 
z
" style="fill: #ffffff"/>
   </g>
   <g id="matplotlib.axis_3">
    <g id="xtick_6">
     <g id="line2d_30">
      <path d="M 468.286481 262.96 
L 468.286481 62.16 
" clip-path="url(#p018689a5d3)" style="fill: none; stroke: #e5e7e9; stroke-width: 0.8; stroke-linecap: square"/>
     </g>
     <g id="line2d_31">
      <g>
       <use xlink:href="#mdf211de10e" x="468.286481" y="262.96" style="stroke: #000000; stroke-width: 0.8"/>
      </g>
     </g>
     <g id="text_15">
      <text style="font-size: 9px; font-family: 'DejaVu Sans'; text-anchor: middle" x="468.286481" y="276.798594" transform="rotate(-0 468.286481 276.798594)">200</text>
     </g>
    </g>
    <g id="xtick_7">
     <g id="line2d_32">
      <path d="M 534.916111 262.96 
L 534.916111 62.16 
" clip-path="url(#p018689a5d3)" style="fill: none; stroke: #e5e7e9; stroke-width: 0.8; stroke-linecap: square"/>
     </g>
     <g id="line2d_33">
      <g>
       <use xlink:href="#mdf211de10e" x="534.916111" y="262.96" style="stroke: #000000; stroke-width: 0.8"/>
      </g>
     </g>
     <g id="text_16">
      <text style="font-size: 9px; font-family: 'DejaVu Sans'; text-anchor: middle" x="534.916111" y="276.798594" transform="rotate(-0 534.916111 276.798594)">400</text>
     </g>
    </g>
    <g id="xtick_8">
     <g id="line2d_34">
      <path d="M 601.545741 262.96 
L 601.545741 62.16 
" clip-path="url(#p018689a5d3)" style="fill: none; stroke: #e5e7e9; stroke-width: 0.8; stroke-linecap: square"/>
     </g>
     <g id="line2d_35">
      <g>
       <use xlink:href="#mdf211de10e" x="601.545741" y="262.96" style="stroke: #000000; stroke-width: 0.8"/>
      </g>
     </g>
     <g id="text_17">
      <text style="font-size: 9px; font-family: 'DejaVu Sans'; text-anchor: middle" x="601.545741" y="276.798594" transform="rotate(-0 601.545741 276.798594)">600</text>
     </g>
    </g>
    <g id="xtick_9">
     <g id="line2d_36">
      <path d="M 668.17537 262.96 
L 668.17537 62.16 
" clip-path="url(#p018689a5d3)" style="fill: none; stroke: #e5e7e9; stroke-width: 0.8; stroke-linecap: square"/>
     </g>
     <g id="line2d_37">
      <g>
       <use xlink:href="#mdf211de10e" x="668.17537" y="262.96" style="stroke: #000000; stroke-width: 0.8"/>
      </g>
     </g>
     <g id="text_18">
      <text style="font-size: 9px; font-family: 'DejaVu Sans'; text-anchor: middle" x="668.17537" y="276.798594" transform="rotate(-0 668.17537 276.798594)">800</text>
     </g>
    </g>
    <g id="xtick_10">
     <g id="line2d_38">
      <path d="M 734.805 262.96 
L 734.805 62.16 
" clip-path="url(#p018689a5d3)" style="fill: none; stroke: #e5e7e9; stroke-width: 0.8; stroke-linecap: square"/>
     </g>
     <g id="line2d_39">
      <g>
       <use xlink:href="#mdf211de10e" x="734.805" y="262.96" style="stroke: #000000; stroke-width: 0.8"/>
      </g>
     </g>
     <g id="text_19">
      <text style="font-size: 9px; font-family: 'DejaVu Sans'; text-anchor: middle" x="734.805" y="276.798594" transform="rotate(-0 734.805 276.798594)">1000</text>
     </g>
    </g>
    <g id="text_20">
     <text style="font-size: 9px; font-family: 'DejaVu Sans'; text-anchor: middle" x="568.3975" y="289.508906" transform="rotate(-0 568.3975 289.508906)">Top K genes</text>
    </g>
   </g>
   <g id="matplotlib.axis_4">
    <g id="ytick_7">
     <g id="line2d_40">
      <path d="M 401.99 259.098462 
L 734.805 259.098462 
" clip-path="url(#p018689a5d3)" style="fill: none; stroke: #e5e7e9; stroke-width: 0.8; stroke-linecap: square"/>
     </g>
     <g id="line2d_41">
      <g>
       <use xlink:href="#me76f3fe253" x="401.99" y="259.098462" style="stroke: #000000; stroke-width: 0.8"/>
      </g>
     </g>
    </g>
    <g id="ytick_8">
     <g id="line2d_42">
      <path d="M 401.99 220.483077 
L 734.805 220.483077 
" clip-path="url(#p018689a5d3)" style="fill: none; stroke: #e5e7e9; stroke-width: 0.8; stroke-linecap: square"/>
     </g>
     <g id="line2d_43">
      <g>
       <use xlink:href="#me76f3fe253" x="401.99" y="220.483077" style="stroke: #000000; stroke-width: 0.8"/>
      </g>
     </g>
    </g>
    <g id="ytick_9">
     <g id="line2d_44">
      <path d="M 401.99 181.867692 
L 734.805 181.867692 
" clip-path="url(#p018689a5d3)" style="fill: none; stroke: #e5e7e9; stroke-width: 0.8; stroke-linecap: square"/>
     </g>
     <g id="line2d_45">
      <g>
       <use xlink:href="#me76f3fe253" x="401.99" y="181.867692" style="stroke: #000000; stroke-width: 0.8"/>
      </g>
     </g>
    </g>
    <g id="ytick_10">
     <g id="line2d_46">
      <path d="M 401.99 143.252308 
L 734.805 143.252308 
" clip-path="url(#p018689a5d3)" style="fill: none; stroke: #e5e7e9; stroke-width: 0.8; stroke-linecap: square"/>
     </g>
     <g id="line2d_47">
      <g>
       <use xlink:href="#me76f3fe253" x="401.99" y="143.252308" style="stroke: #000000; stroke-width: 0.8"/>
      </g>
     </g>
    </g>
    <g id="ytick_11">
     <g id="line2d_48">
      <path d="M 401.99 104.636923 
L 734.805 104.636923 
" clip-path="url(#p018689a5d3)" style="fill: none; stroke: #e5e7e9; stroke-width: 0.8; stroke-linecap: square"/>
     </g>
     <g id="line2d_49">
      <g>
       <use xlink:href="#me76f3fe253" x="401.99" y="104.636923" style="stroke: #000000; stroke-width: 0.8"/>
      </g>
     </g>
    </g>
    <g id="ytick_12">
     <g id="line2d_50">
      <path d="M 401.99 66.021538 
L 734.805 66.021538 
" clip-path="url(#p018689a5d3)" style="fill: none; stroke: #e5e7e9; stroke-width: 0.8; stroke-linecap: square"/>
     </g>
     <g id="line2d_51">
      <g>
       <use xlink:href="#me76f3fe253" x="401.99" y="66.021538" style="stroke: #000000; stroke-width: 0.8"/>
      </g>
     </g>
    </g>
   </g>
   <g id="line2d_52">
    <path d="M 401.99 247.031154 
L 403.322593 198.761923 
L 403.655741 198.761923 
L 403.988889 186.694615 
L 409.652407 186.694615 
L 409.985556 174.627308 
L 411.984444 174.627308 
L 412.317593 162.56 
L 414.64963 162.56 
L 414.982778 150.492692 
L 415.649074 150.492692 
L 415.982222 138.425385 
L 416.31537 138.425385 
L 416.648519 126.358077 
L 419.646852 126.358077 
L 419.98 114.290769 
L 444.966111 114.290769 
L 445.299259 102.223462 
L 734.805 102.223462 
L 734.805 102.223462 
" clip-path="url(#p018689a5d3)" style="fill: none; stroke: #1b4f72; stroke-width: 2.6; stroke-linecap: square"/>
   </g>
   <g id="line2d_53">
    <path d="M 401.99 247.031154 
L 403.322593 198.761923 
L 403.655741 198.761923 
L 403.988889 186.694615 
L 409.985556 186.694615 
L 410.318704 174.627308 
L 413.317037 174.627308 
L 413.650185 162.56 
L 415.649074 162.56 
L 416.648519 126.358077 
L 418.314259 126.358077 
L 418.647407 114.290769 
L 438.969444 114.290769 
L 439.302593 102.223462 
L 734.805 102.223462 
L 734.805 102.223462 
" clip-path="url(#p018689a5d3)" style="fill: none; stroke: #117864; stroke-width: 2.4; stroke-linecap: square"/>
   </g>
   <g id="line2d_54">
    <path d="M 401.99 247.031154 
L 402.989444 210.829231 
L 403.322593 210.829231 
L 403.655741 198.761923 
L 404.655185 198.761923 
L 405.321481 174.627308 
L 409.652407 174.627308 
L 409.985556 162.56 
L 420.646296 162.56 
L 420.979444 150.492692 
L 429.641296 150.492692 
L 429.974444 138.425385 
L 451.629074 138.425385 
L 451.962222 126.358077 
L 497.27037 126.358077 
L 497.603519 114.290769 
L 516.926111 114.290769 
L 517.259259 102.223462 
L 734.805 102.223462 
L 734.805 102.223462 
" clip-path="url(#p018689a5d3)" style="fill: none; stroke-dasharray: 7.4,3.2; stroke-dashoffset: 0; stroke: #7d3c98; stroke-width: 2"/>
   </g>
   <g id="line2d_55">
    <path d="M 401.99 247.031154 
L 402.323148 247.031154 
L 403.322593 210.829231 
L 403.655741 210.829231 
L 403.988889 198.761923 
L 404.322037 198.761923 
L 404.988333 174.627308 
L 410.985 174.627308 
L 411.318148 162.56 
L 436.970556 162.56 
L 437.303704 150.492692 
L 450.962778 150.492692 
L 451.295926 138.425385 
L 479.28037 138.425385 
L 479.613519 126.358077 
L 482.945 126.358077 
L 483.278148 114.290769 
L 585.55463 114.290769 
L 585.887778 102.223462 
L 587.886667 102.223462 
L 588.219815 90.156154 
L 734.805 90.156154 
L 734.805 90.156154 
" clip-path="url(#p018689a5d3)" style="fill: none; stroke-dasharray: 7.4,3.2; stroke-dashoffset: 0; stroke: #b03a2e; stroke-width: 2"/>
   </g>
   <g id="line2d_56">
    <path d="M 401.99 247.031154 
L 402.323148 247.031154 
L 403.322593 210.829231 
L 403.655741 210.829231 
L 403.988889 198.761923 
L 404.322037 198.761923 
L 404.988333 174.627308 
L 410.985 174.627308 
L 411.318148 162.56 
L 436.970556 162.56 
L 437.303704 150.492692 
L 450.962778 150.492692 
L 451.295926 138.425385 
L 479.28037 138.425385 
L 479.613519 126.358077 
L 482.945 126.358077 
L 483.278148 114.290769 
L 585.55463 114.290769 
L 585.887778 102.223462 
L 587.886667 102.223462 
L 588.219815 90.156154 
L 734.805 90.156154 
L 734.805 90.156154 
" clip-path="url(#p018689a5d3)" style="fill: none; stroke-dasharray: 2.2,3.63; stroke-dashoffset: 0; stroke: #d35400; stroke-width: 2.2"/>
   </g>
   <g id="line2d_57">
    <path d="M 401.99 247.031154 
L 402.656296 222.896538 
L 404.322037 222.896538 
L 404.988333 198.761923 
L 410.985 198.761923 
L 411.318148 186.694615 
L 421.978889 186.694615 
L 422.312037 174.627308 
L 439.302593 174.627308 
L 439.635741 162.56 
L 455.96 162.56 
L 456.293148 150.492692 
L 464.621852 150.492692 
L 464.955 138.425385 
L 542.578519 138.425385 
L 542.911667 126.358077 
L 573.894444 126.358077 
L 574.227593 114.290769 
L 709.485741 114.290769 
L 709.818889 102.223462 
L 734.805 102.223462 
L 734.805 102.223462 
" clip-path="url(#p018689a5d3)" style="fill: none; stroke-dasharray: 12.8,3.2,2,3.2; stroke-dashoffset: 0; stroke: #566573; stroke-width: 2"/>
   </g>
   <g id="line2d_58">
    <path d="M 401.99 247.031154 
L 402.323148 234.963846 
L 402.656296 234.963846 
L 402.989444 222.896538 
L 403.655741 222.896538 
L 404.322037 198.761923 
L 404.988333 198.761923 
L 405.321481 186.694615 
L 406.320926 186.694615 
L 406.654074 174.627308 
L 436.304259 174.627308 
L 436.637407 162.56 
L 442.967222 162.56 
L 443.30037 150.492692 
L 448.963889 150.492692 
L 449.297037 138.425385 
L 495.271481 138.425385 
L 495.60463 126.358077 
L 526.920556 126.358077 
L 527.253704 114.290769 
L 646.520741 114.290769 
L 646.853889 102.223462 
L 711.48463 102.223462 
L 711.817778 90.156154 
L 734.805 90.156154 
L 734.805 90.156154 
" clip-path="url(#p018689a5d3)" style="fill: none; stroke-dasharray: 6,2,2,2; stroke-dashoffset: 0; stroke: #2e86c1; stroke-width: 2"/>
   </g>
   <g id="patch_6">
    <path d="M 401.99 262.96 
L 401.99 62.16 
" style="fill: none; stroke: #000000; stroke-width: 0.8; stroke-linejoin: miter; stroke-linecap: square"/>
   </g>
   <g id="patch_7">
    <path d="M 401.99 262.96 
L 734.805 262.96 
" style="fill: none; stroke: #000000; stroke-width: 0.8; stroke-linejoin: miter; stroke-linecap: square"/>
   </g>
   <g id="text_21">
    <text style="font-weight: 700; font-size: 11px; font-family: 'DejaVu Sans'; text-anchor: start" x="401.99" y="56.16" transform="rotate(-0 401.99 56.16)">B. Direction-aware recall</text>
   </g>
   <g id="legend_1">
    <g id="line2d_59">
     <path d="M 612.95375 180.84125 
L 620.95375 180.84125 
L 628.95375 180.84125 
" style="fill: none; stroke: #1b4f72; stroke-width: 2.6; stroke-linecap: square"/>
    </g>
    <g id="text_22">
     <text style="font-size: 8px; font-family: 'DejaVu Sans'; text-anchor: start" x="635.35375" y="183.64125" transform="rotate(-0 635.35375 183.64125)">PIPER primary</text>
    </g>
    <g id="line2d_60">
     <path d="M 612.95375 192.58375 
L 620.95375 192.58375 
L 628.95375 192.58375 
" style="fill: none; stroke: #117864; stroke-width: 2.4; stroke-linecap: square"/>
    </g>
    <g id="text_23">
     <text style="font-size: 8px; font-family: 'DejaVu Sans'; text-anchor: start" x="635.35375" y="195.38375" transform="rotate(-0 635.35375 195.38375)">PIPER quality-weighted</text>
    </g>
    <g id="line2d_61">
     <path d="M 612.95375 204.32625 
L 620.95375 204.32625 
L 628.95375 204.32625 
" style="fill: none; stroke-dasharray: 7.4,3.2; stroke-dashoffset: 0; stroke: #7d3c98; stroke-width: 2"/>
    </g>
    <g id="text_24">
     <text style="font-size: 8px; font-family: 'DejaVu Sans'; text-anchor: start" x="635.35375" y="207.12625" transform="rotate(-0 635.35375 207.12625)">Weighted Stouffer</text>
    </g>
    <g id="line2d_62">
     <path d="M 612.95375 216.06875 
L 620.95375 216.06875 
L 628.95375 216.06875 
" style="fill: none; stroke-dasharray: 7.4,3.2; stroke-dashoffset: 0; stroke: #b03a2e; stroke-width: 2"/>
    </g>
    <g id="text_25">
     <text style="font-size: 8px; font-family: 'DejaVu Sans'; text-anchor: start" x="635.35375" y="218.86875" transform="rotate(-0 635.35375 218.86875)">Fisher</text>
    </g>
    <g id="line2d_63">
     <path d="M 612.95375 227.81125 
L 620.95375 227.81125 
L 628.95375 227.81125 
" style="fill: none; stroke-dasharray: 2.2,3.63; stroke-dashoffset: 0; stroke: #d35400; stroke-width: 2.2"/>
    </g>
    <g id="text_26">
     <text style="font-size: 8px; font-family: 'DejaVu Sans'; text-anchor: start" x="635.35375" y="230.61125" transform="rotate(-0 635.35375 230.61125)">MetaVolcanoR</text>
    </g>
    <g id="line2d_64">
     <path d="M 612.95375 239.55375 
L 620.95375 239.55375 
L 628.95375 239.55375 
" style="fill: none; stroke-dasharray: 12.8,3.2,2,3.2; stroke-dashoffset: 0; stroke: #566573; stroke-width: 2"/>
    </g>
    <g id="text_27">
     <text style="font-size: 8px; font-family: 'DejaVu Sans'; text-anchor: start" x="635.35375" y="242.35375" transform="rotate(-0 635.35375 242.35375)">RobustRankAggreg</text>
    </g>
    <g id="line2d_65">
     <path d="M 612.95375 251.29625 
L 620.95375 251.29625 
L 628.95375 251.29625 
" style="fill: none; stroke-dasharray: 6,2,2,2; stroke-dashoffset: 0; stroke: #2e86c1; stroke-width: 2"/>
    </g>
    <g id="text_28">
     <text style="font-size: 8px; font-family: 'DejaVu Sans'; text-anchor: start" x="635.35375" y="254.09625" transform="rotate(-0 635.35375 254.09625)">Rank product approx.</text>
    </g>
   </g>
  </g>
  <g id="text_29">
   <text style="font-weight: 700; font-size: 12px; font-family: 'DejaVu Sans'; text-anchor: start" x="15.12" y="10.630125" transform="rotate(-0 15.12 10.630125)">Heat shock / HSF1 locked gold recall</text>
  </g>
 </g>
 <defs>
  <clipPath id="p513832604c">
   <rect x="44.48" y="62.16" width="332.815" height="200.8"/>
  </clipPath>
  <clipPath id="p018689a5d3">
   <rect x="401.99" y="62.16" width="332.815" height="200.8"/>
  </clipPath>
 </defs>
</svg>
